<mxfile host="app.diagrams.net" modified="2024-05-08T16:31:06.392Z" agent="Mozilla/5.0 (Macintosh; Intel Mac OS X 10.15; rv:125.0) Gecko/20100101 Firefox/125.0" etag="v5ijkcsUrOD860H-NgQn" version="24.3.0" type="github" pages="3">
  <diagram name="Attack" id="ZeoZ0WHfsodcyNxrAfag">
    <mxGraphModel dx="-3296" dy="1742" grid="1" gridSize="10" guides="1" tooltips="1" connect="1" arrows="1" fold="1" page="1" pageScale="1" pageWidth="850" pageHeight="1100" math="0" shadow="0">
      <root>
        <mxCell id="0" />
        <mxCell id="1" parent="0" />
        <mxCell id="gUTC3p-jZjWf_sy_iYI1-5" value="Public subnet" style="points=[[0,0],[0.25,0],[0.5,0],[0.75,0],[1,0],[1,0.25],[1,0.5],[1,0.75],[1,1],[0.75,1],[0.5,1],[0.25,1],[0,1],[0,0.75],[0,0.5],[0,0.25]];outlineConnect=0;gradientColor=none;html=1;whiteSpace=wrap;fontSize=12;fontStyle=0;container=1;pointerEvents=0;collapsible=0;recursiveResize=0;shape=mxgraph.aws4.group;grIcon=mxgraph.aws4.group_security_group;grStroke=0;strokeColor=#7AA116;fillColor=#F2F6E8;verticalAlign=top;align=left;spacingLeft=30;fontColor=#248814;dashed=0;" parent="1" vertex="1">
          <mxGeometry x="5068" y="70" width="342" height="310" as="geometry" />
        </mxCell>
        <mxCell id="gUTC3p-jZjWf_sy_iYI1-10" value="" style="edgeStyle=orthogonalEdgeStyle;rounded=0;orthogonalLoop=1;jettySize=auto;html=1;" parent="gUTC3p-jZjWf_sy_iYI1-5" source="gUTC3p-jZjWf_sy_iYI1-4" target="gUTC3p-jZjWf_sy_iYI1-7" edge="1">
          <mxGeometry relative="1" as="geometry" />
        </mxCell>
        <mxCell id="gUTC3p-jZjWf_sy_iYI1-4" value="" style="sketch=0;points=[[0,0,0],[0.25,0,0],[0.5,0,0],[0.75,0,0],[1,0,0],[0,1,0],[0.25,1,0],[0.5,1,0],[0.75,1,0],[1,1,0],[0,0.25,0],[0,0.5,0],[0,0.75,0],[1,0.25,0],[1,0.5,0],[1,0.75,0]];outlineConnect=0;fontColor=#232F3E;fillColor=#ED7100;strokeColor=#ffffff;dashed=0;verticalLabelPosition=bottom;verticalAlign=top;align=center;html=1;fontSize=12;fontStyle=0;aspect=fixed;shape=mxgraph.aws4.resourceIcon;resIcon=mxgraph.aws4.ec2;" parent="gUTC3p-jZjWf_sy_iYI1-5" vertex="1">
          <mxGeometry x="102" y="70" width="78" height="78" as="geometry" />
        </mxCell>
        <mxCell id="gUTC3p-jZjWf_sy_iYI1-7" value="" style="outlineConnect=0;dashed=0;verticalLabelPosition=bottom;verticalAlign=top;align=center;html=1;shape=mxgraph.aws3.volume;fillColor=#E05243;gradientColor=none;" parent="gUTC3p-jZjWf_sy_iYI1-5" vertex="1">
          <mxGeometry x="114.75" y="200" width="52.5" height="75" as="geometry" />
        </mxCell>
        <mxCell id="gUTC3p-jZjWf_sy_iYI1-9" value="" style="edgeStyle=orthogonalEdgeStyle;rounded=0;orthogonalLoop=1;jettySize=auto;html=1;" parent="1" source="gUTC3p-jZjWf_sy_iYI1-8" target="gUTC3p-jZjWf_sy_iYI1-4" edge="1">
          <mxGeometry relative="1" as="geometry" />
        </mxCell>
        <mxCell id="gUTC3p-jZjWf_sy_iYI1-8" value="" style="shape=image;html=1;verticalAlign=top;verticalLabelPosition=bottom;labelBackgroundColor=#ffffff;imageAspect=0;aspect=fixed;image=https://cdn2.iconfinder.com/data/icons/woothemes/PNG/intruder.png" parent="1" vertex="1">
          <mxGeometry x="5164" y="-50" width="90" height="90" as="geometry" />
        </mxCell>
        <mxCell id="gUTC3p-jZjWf_sy_iYI1-11" value="Expired SSL certificate" style="text;html=1;align=center;verticalAlign=middle;resizable=0;points=[];autosize=1;strokeColor=none;fillColor=none;" parent="1" vertex="1">
          <mxGeometry x="5120" y="98" width="140" height="30" as="geometry" />
        </mxCell>
        <mxCell id="gUTC3p-jZjWf_sy_iYI1-12" value="User Credentials" style="text;html=1;align=center;verticalAlign=middle;resizable=0;points=[];autosize=1;strokeColor=none;fillColor=none;" parent="1" vertex="1">
          <mxGeometry x="5065" y="158" width="110" height="30" as="geometry" />
        </mxCell>
        <mxCell id="gUTC3p-jZjWf_sy_iYI1-13" value="&lt;div&gt;Persistence&lt;/div&gt;&lt;div&gt;&amp;amp; Lateral Movt&lt;br&gt;&lt;/div&gt;" style="text;html=1;align=center;verticalAlign=middle;resizable=0;points=[];autosize=1;strokeColor=none;fillColor=none;" parent="1" vertex="1">
          <mxGeometry x="5080" y="183" width="100" height="40" as="geometry" />
        </mxCell>
        <mxCell id="gUTC3p-jZjWf_sy_iYI1-14" value="User Data" style="text;html=1;align=center;verticalAlign=middle;resizable=0;points=[];autosize=1;strokeColor=none;fillColor=none;" parent="1" vertex="1">
          <mxGeometry x="5100" y="278" width="80" height="30" as="geometry" />
        </mxCell>
        <mxCell id="gUTC3p-jZjWf_sy_iYI1-15" value="Unpatched Server" style="text;html=1;align=center;verticalAlign=middle;resizable=0;points=[];autosize=1;strokeColor=none;fillColor=none;" parent="1" vertex="1">
          <mxGeometry x="5070" y="128" width="120" height="30" as="geometry" />
        </mxCell>
      </root>
    </mxGraphModel>
  </diagram>
  <diagram id="PSVWc9Ohz6YlZw6CIQyH" name="Remediation">
    <mxGraphModel dx="954" dy="642" grid="1" gridSize="10" guides="1" tooltips="1" connect="1" arrows="1" fold="1" page="1" pageScale="1" pageWidth="850" pageHeight="1100" math="0" shadow="0">
      <root>
        <mxCell id="0" />
        <mxCell id="1" parent="0" />
        <mxCell id="1PCJW9EKXeOpJS-jBmUV-6" value="VPC" style="points=[[0,0],[0.25,0],[0.5,0],[0.75,0],[1,0],[1,0.25],[1,0.5],[1,0.75],[1,1],[0.75,1],[0.5,1],[0.25,1],[0,1],[0,0.75],[0,0.5],[0,0.25]];outlineConnect=0;gradientColor=none;html=1;whiteSpace=wrap;fontSize=12;fontStyle=0;container=1;pointerEvents=0;collapsible=0;recursiveResize=0;shape=mxgraph.aws4.group;grIcon=mxgraph.aws4.group_vpc2;strokeColor=#8C4FFF;fillColor=none;verticalAlign=top;align=left;spacingLeft=30;fontColor=#AAB7B8;dashed=0;" parent="1" vertex="1">
          <mxGeometry x="230" y="50" width="360" height="490" as="geometry" />
        </mxCell>
        <mxCell id="1PCJW9EKXeOpJS-jBmUV-7" value="" style="sketch=0;points=[[0,0,0],[0.25,0,0],[0.5,0,0],[0.75,0,0],[1,0,0],[0,1,0],[0.25,1,0],[0.5,1,0],[0.75,1,0],[1,1,0],[0,0.25,0],[0,0.5,0],[0,0.75,0],[1,0.25,0],[1,0.5,0],[1,0.75,0]];outlineConnect=0;fontColor=#232F3E;fillColor=#ED7100;strokeColor=#ffffff;dashed=0;verticalLabelPosition=bottom;verticalAlign=top;align=center;html=1;fontSize=12;fontStyle=0;aspect=fixed;shape=mxgraph.aws4.resourceIcon;resIcon=mxgraph.aws4.ec2;" parent="1PCJW9EKXeOpJS-jBmUV-6" vertex="1">
          <mxGeometry x="120" y="215" width="60" height="60" as="geometry" />
        </mxCell>
        <mxCell id="1PCJW9EKXeOpJS-jBmUV-9" value="Private subnet" style="points=[[0,0],[0.25,0],[0.5,0],[0.75,0],[1,0],[1,0.25],[1,0.5],[1,0.75],[1,1],[0.75,1],[0.5,1],[0.25,1],[0,1],[0,0.75],[0,0.5],[0,0.25]];outlineConnect=0;gradientColor=none;html=1;whiteSpace=wrap;fontSize=12;fontStyle=0;container=1;pointerEvents=0;collapsible=0;recursiveResize=0;shape=mxgraph.aws4.group;grIcon=mxgraph.aws4.group_security_group;grStroke=0;strokeColor=#00A4A6;fillColor=#E6F6F7;verticalAlign=top;align=left;spacingLeft=30;fontColor=#147EBA;dashed=0;" parent="1PCJW9EKXeOpJS-jBmUV-6" vertex="1">
          <mxGeometry x="40" y="310" width="230" height="130" as="geometry" />
        </mxCell>
        <mxCell id="1PCJW9EKXeOpJS-jBmUV-12" value="Amazon RDS" style="sketch=0;outlineConnect=0;fontColor=#232F3E;gradientColor=none;strokeColor=#ffffff;fillColor=#232F3E;dashed=0;verticalLabelPosition=middle;verticalAlign=bottom;align=center;html=1;whiteSpace=wrap;fontSize=10;fontStyle=1;spacing=3;shape=mxgraph.aws4.productIcon;prIcon=mxgraph.aws4.rds;" parent="1PCJW9EKXeOpJS-jBmUV-9" vertex="1">
          <mxGeometry x="75" y="30" width="80" height="100" as="geometry" />
        </mxCell>
        <mxCell id="1PCJW9EKXeOpJS-jBmUV-11" value="" style="sketch=0;points=[[0,0,0],[0.25,0,0],[0.5,0,0],[0.75,0,0],[1,0,0],[0,1,0],[0.25,1,0],[0.5,1,0],[0.75,1,0],[1,1,0],[0,0.25,0],[0,0.5,0],[0,0.75,0],[1,0.25,0],[1,0.5,0],[1,0.75,0]];outlineConnect=0;fontColor=#232F3E;fillColor=#ED7100;strokeColor=#ffffff;dashed=0;verticalLabelPosition=bottom;verticalAlign=top;align=center;html=1;fontSize=12;fontStyle=0;aspect=fixed;shape=mxgraph.aws4.resourceIcon;resIcon=mxgraph.aws4.ec2;" parent="1PCJW9EKXeOpJS-jBmUV-6" vertex="1">
          <mxGeometry x="125" y="215" width="60" height="60" as="geometry" />
        </mxCell>
        <mxCell id="1PCJW9EKXeOpJS-jBmUV-19" value="" style="sketch=0;outlineConnect=0;fontColor=#232F3E;gradientColor=none;fillColor=#8C4FFF;strokeColor=none;dashed=0;verticalLabelPosition=bottom;verticalAlign=top;align=center;html=1;fontSize=12;fontStyle=0;aspect=fixed;pointerEvents=1;shape=mxgraph.aws4.internet_gateway;" parent="1PCJW9EKXeOpJS-jBmUV-6" vertex="1">
          <mxGeometry x="125" y="-40" width="58" height="58" as="geometry" />
        </mxCell>
        <mxCell id="1PCJW9EKXeOpJS-jBmUV-18" value="AWS WAF" style="sketch=0;outlineConnect=0;fontColor=#232F3E;gradientColor=none;strokeColor=#ffffff;fillColor=#232F3E;dashed=0;verticalLabelPosition=middle;verticalAlign=bottom;align=center;html=1;whiteSpace=wrap;fontSize=10;fontStyle=1;spacing=3;shape=mxgraph.aws4.productIcon;prIcon=mxgraph.aws4.waf;" parent="1PCJW9EKXeOpJS-jBmUV-6" vertex="1">
          <mxGeometry x="280" y="100" width="80" height="100" as="geometry" />
        </mxCell>
        <mxCell id="5ypYLeC86zixy3aQsOSU-1" value="AWS Secrets Manager" style="sketch=0;outlineConnect=0;fontColor=#232F3E;gradientColor=none;strokeColor=#ffffff;fillColor=#232F3E;dashed=0;verticalLabelPosition=middle;verticalAlign=bottom;align=center;html=1;whiteSpace=wrap;fontSize=10;fontStyle=1;spacing=3;shape=mxgraph.aws4.productIcon;prIcon=mxgraph.aws4.secrets_manager;" parent="1PCJW9EKXeOpJS-jBmUV-6" vertex="1">
          <mxGeometry x="270" y="330" width="80" height="110" as="geometry" />
        </mxCell>
        <mxCell id="5ypYLeC86zixy3aQsOSU-2" value="IAM" style="outlineConnect=0;dashed=0;verticalLabelPosition=bottom;verticalAlign=top;align=center;html=1;shape=mxgraph.aws3.iam;fillColor=#759C3E;gradientColor=none;" parent="1PCJW9EKXeOpJS-jBmUV-6" vertex="1">
          <mxGeometry x="289" y="215" width="42" height="81" as="geometry" />
        </mxCell>
        <mxCell id="1PCJW9EKXeOpJS-jBmUV-17" value="AWS Certificate Manager" style="sketch=0;outlineConnect=0;fontColor=#232F3E;gradientColor=none;strokeColor=#ffffff;fillColor=#232F3E;dashed=0;verticalLabelPosition=middle;verticalAlign=bottom;align=center;html=1;whiteSpace=wrap;fontSize=10;fontStyle=1;spacing=3;shape=mxgraph.aws4.productIcon;prIcon=mxgraph.aws4.certificate_manager_3;" parent="1PCJW9EKXeOpJS-jBmUV-6" vertex="1">
          <mxGeometry x="260" y="-50" width="80" height="110" as="geometry" />
        </mxCell>
        <mxCell id="1PCJW9EKXeOpJS-jBmUV-2" value="Private subnet" style="points=[[0,0],[0.25,0],[0.5,0],[0.75,0],[1,0],[1,0.25],[1,0.5],[1,0.75],[1,1],[0.75,1],[0.5,1],[0.25,1],[0,1],[0,0.75],[0,0.5],[0,0.25]];outlineConnect=0;gradientColor=none;html=1;whiteSpace=wrap;fontSize=12;fontStyle=0;container=1;pointerEvents=0;collapsible=0;recursiveResize=0;shape=mxgraph.aws4.group;grIcon=mxgraph.aws4.group_security_group;grStroke=0;strokeColor=#00A4A6;fillColor=#E6F6F7;verticalAlign=top;align=left;spacingLeft=30;fontColor=#147EBA;dashed=0;" parent="1" vertex="1">
          <mxGeometry x="270" y="230" width="220" height="130" as="geometry" />
        </mxCell>
        <mxCell id="1PCJW9EKXeOpJS-jBmUV-14" value="" style="sketch=0;points=[[0,0,0],[0.25,0,0],[0.5,0,0],[0.75,0,0],[1,0,0],[0,1,0],[0.25,1,0],[0.5,1,0],[0.75,1,0],[1,1,0],[0,0.25,0],[0,0.5,0],[0,0.75,0],[1,0.25,0],[1,0.5,0],[1,0.75,0]];outlineConnect=0;fontColor=#232F3E;fillColor=#ED7100;strokeColor=#ffffff;dashed=0;verticalLabelPosition=bottom;verticalAlign=top;align=center;html=1;fontSize=12;fontStyle=0;aspect=fixed;shape=mxgraph.aws4.resourceIcon;resIcon=mxgraph.aws4.ec2;" parent="1PCJW9EKXeOpJS-jBmUV-2" vertex="1">
          <mxGeometry x="85" y="35" width="60" height="60" as="geometry" />
        </mxCell>
        <mxCell id="ziN9_3Y8d08OHvedsBR_-1" value="" style="sketch=0;points=[[0,0,0],[0.25,0,0],[0.5,0,0],[0.75,0,0],[1,0,0],[0,1,0],[0.25,1,0],[0.5,1,0],[0.75,1,0],[1,1,0],[0,0.25,0],[0,0.5,0],[0,0.75,0],[1,0.25,0],[1,0.5,0],[1,0.75,0]];outlineConnect=0;fontColor=#232F3E;fillColor=#DD344C;strokeColor=#ffffff;dashed=0;verticalLabelPosition=bottom;verticalAlign=top;align=center;html=1;fontSize=12;fontStyle=0;aspect=fixed;shape=mxgraph.aws4.resourceIcon;resIcon=mxgraph.aws4.inspector;" vertex="1" parent="1PCJW9EKXeOpJS-jBmUV-2">
          <mxGeometry x="41.5" y="43.25" width="43.5" height="43.5" as="geometry" />
        </mxCell>
        <mxCell id="1PCJW9EKXeOpJS-jBmUV-1" value="Public subnet" style="points=[[0,0],[0.25,0],[0.5,0],[0.75,0],[1,0],[1,0.25],[1,0.5],[1,0.75],[1,1],[0.75,1],[0.5,1],[0.25,1],[0,1],[0,0.75],[0,0.5],[0,0.25]];outlineConnect=0;gradientColor=none;html=1;whiteSpace=wrap;fontSize=12;fontStyle=0;container=1;pointerEvents=0;collapsible=0;recursiveResize=0;shape=mxgraph.aws4.group;grIcon=mxgraph.aws4.group_security_group;grStroke=0;strokeColor=#7AA116;fillColor=#F2F6E8;verticalAlign=top;align=left;spacingLeft=30;fontColor=#248814;dashed=0;" parent="1" vertex="1">
          <mxGeometry x="270" y="80" width="230" height="170" as="geometry" />
        </mxCell>
        <mxCell id="1PCJW9EKXeOpJS-jBmUV-15" value="Security group" style="fillColor=none;strokeColor=#DD3522;verticalAlign=top;fontStyle=0;fontColor=#DD3522;whiteSpace=wrap;html=1;" parent="1PCJW9EKXeOpJS-jBmUV-1" vertex="1">
          <mxGeometry x="50" y="40" width="130" height="130" as="geometry" />
        </mxCell>
        <mxCell id="1PCJW9EKXeOpJS-jBmUV-20" value="" style="outlineConnect=0;dashed=0;verticalLabelPosition=bottom;verticalAlign=top;align=center;html=1;shape=mxgraph.aws3.classic_load_balancer;fillColor=#F58536;gradientColor=none;" parent="1PCJW9EKXeOpJS-jBmUV-1" vertex="1">
          <mxGeometry x="86" y="58" width="69" height="72" as="geometry" />
        </mxCell>
        <mxCell id="1PCJW9EKXeOpJS-jBmUV-16" value="Network&#xa;access&#xa;control list" style="sketch=0;outlineConnect=0;fontColor=#232F3E;gradientColor=none;strokeColor=#232F3E;fillColor=#ffffff;dashed=0;verticalLabelPosition=bottom;verticalAlign=top;align=center;html=1;fontSize=12;fontStyle=0;aspect=fixed;shape=mxgraph.aws4.resourceIcon;resIcon=mxgraph.aws4.network_access_control_list;" parent="1PCJW9EKXeOpJS-jBmUV-1" vertex="1">
          <mxGeometry x="-40" y="20" width="70" height="70" as="geometry" />
        </mxCell>
        <mxCell id="1PCJW9EKXeOpJS-jBmUV-13" value="Patch&#xa;manager" style="sketch=0;outlineConnect=0;fontColor=#232F3E;gradientColor=none;strokeColor=#232F3E;fillColor=#ffffff;dashed=0;verticalLabelPosition=bottom;verticalAlign=top;align=center;html=1;fontSize=12;fontStyle=0;aspect=fixed;shape=mxgraph.aws4.resourceIcon;resIcon=mxgraph.aws4.patch_manager;" parent="1" vertex="1">
          <mxGeometry x="160" y="70" width="60" height="60" as="geometry" />
        </mxCell>
      </root>
    </mxGraphModel>
  </diagram>
  <diagram name="Final" id="nu2eetl9k-jE_KTyOvL-">
    <mxGraphModel dx="954" dy="642" grid="1" gridSize="10" guides="1" tooltips="1" connect="1" arrows="1" fold="1" page="1" pageScale="1" pageWidth="850" pageHeight="1100" math="0" shadow="0">
      <root>
        <mxCell id="rNrNsXkIHkJ5454EtuJx-0" />
        <mxCell id="rNrNsXkIHkJ5454EtuJx-1" parent="rNrNsXkIHkJ5454EtuJx-0" />
        <mxCell id="rNrNsXkIHkJ5454EtuJx-2" value="VPC" style="points=[[0,0],[0.25,0],[0.5,0],[0.75,0],[1,0],[1,0.25],[1,0.5],[1,0.75],[1,1],[0.75,1],[0.5,1],[0.25,1],[0,1],[0,0.75],[0,0.5],[0,0.25]];outlineConnect=0;gradientColor=none;html=1;whiteSpace=wrap;fontSize=12;fontStyle=0;container=1;pointerEvents=0;collapsible=0;recursiveResize=0;shape=mxgraph.aws4.group;grIcon=mxgraph.aws4.group_vpc2;strokeColor=#8C4FFF;fillColor=none;verticalAlign=top;align=left;spacingLeft=30;fontColor=#AAB7B8;dashed=0;" vertex="1" parent="rNrNsXkIHkJ5454EtuJx-1">
          <mxGeometry x="230" y="50" width="360" height="490" as="geometry" />
        </mxCell>
        <mxCell id="rNrNsXkIHkJ5454EtuJx-3" value="" style="sketch=0;points=[[0,0,0],[0.25,0,0],[0.5,0,0],[0.75,0,0],[1,0,0],[0,1,0],[0.25,1,0],[0.5,1,0],[0.75,1,0],[1,1,0],[0,0.25,0],[0,0.5,0],[0,0.75,0],[1,0.25,0],[1,0.5,0],[1,0.75,0]];outlineConnect=0;fontColor=#232F3E;fillColor=#ED7100;strokeColor=#ffffff;dashed=0;verticalLabelPosition=bottom;verticalAlign=top;align=center;html=1;fontSize=12;fontStyle=0;aspect=fixed;shape=mxgraph.aws4.resourceIcon;resIcon=mxgraph.aws4.ec2;" vertex="1" parent="rNrNsXkIHkJ5454EtuJx-2">
          <mxGeometry x="120" y="215" width="60" height="60" as="geometry" />
        </mxCell>
        <mxCell id="rNrNsXkIHkJ5454EtuJx-4" value="Private subnet" style="points=[[0,0],[0.25,0],[0.5,0],[0.75,0],[1,0],[1,0.25],[1,0.5],[1,0.75],[1,1],[0.75,1],[0.5,1],[0.25,1],[0,1],[0,0.75],[0,0.5],[0,0.25]];outlineConnect=0;gradientColor=none;html=1;whiteSpace=wrap;fontSize=12;fontStyle=0;container=1;pointerEvents=0;collapsible=0;recursiveResize=0;shape=mxgraph.aws4.group;grIcon=mxgraph.aws4.group_security_group;grStroke=0;strokeColor=#00A4A6;fillColor=#E6F6F7;verticalAlign=top;align=left;spacingLeft=30;fontColor=#147EBA;dashed=0;" vertex="1" parent="rNrNsXkIHkJ5454EtuJx-2">
          <mxGeometry x="40" y="310" width="230" height="130" as="geometry" />
        </mxCell>
        <mxCell id="rNrNsXkIHkJ5454EtuJx-5" value="Amazon RDS" style="sketch=0;outlineConnect=0;fontColor=#232F3E;gradientColor=none;strokeColor=#ffffff;fillColor=#232F3E;dashed=0;verticalLabelPosition=middle;verticalAlign=bottom;align=center;html=1;whiteSpace=wrap;fontSize=10;fontStyle=1;spacing=3;shape=mxgraph.aws4.productIcon;prIcon=mxgraph.aws4.rds;" vertex="1" parent="rNrNsXkIHkJ5454EtuJx-4">
          <mxGeometry x="75" y="30" width="80" height="100" as="geometry" />
        </mxCell>
        <mxCell id="rNrNsXkIHkJ5454EtuJx-6" value="" style="sketch=0;points=[[0,0,0],[0.25,0,0],[0.5,0,0],[0.75,0,0],[1,0,0],[0,1,0],[0.25,1,0],[0.5,1,0],[0.75,1,0],[1,1,0],[0,0.25,0],[0,0.5,0],[0,0.75,0],[1,0.25,0],[1,0.5,0],[1,0.75,0]];outlineConnect=0;fontColor=#232F3E;fillColor=#ED7100;strokeColor=#ffffff;dashed=0;verticalLabelPosition=bottom;verticalAlign=top;align=center;html=1;fontSize=12;fontStyle=0;aspect=fixed;shape=mxgraph.aws4.resourceIcon;resIcon=mxgraph.aws4.ec2;" vertex="1" parent="rNrNsXkIHkJ5454EtuJx-2">
          <mxGeometry x="125" y="215" width="60" height="60" as="geometry" />
        </mxCell>
        <mxCell id="rNrNsXkIHkJ5454EtuJx-7" value="" style="sketch=0;outlineConnect=0;fontColor=#232F3E;gradientColor=none;fillColor=#8C4FFF;strokeColor=none;dashed=0;verticalLabelPosition=bottom;verticalAlign=top;align=center;html=1;fontSize=12;fontStyle=0;aspect=fixed;pointerEvents=1;shape=mxgraph.aws4.internet_gateway;" vertex="1" parent="rNrNsXkIHkJ5454EtuJx-2">
          <mxGeometry x="125" y="-40" width="58" height="58" as="geometry" />
        </mxCell>
        <mxCell id="rNrNsXkIHkJ5454EtuJx-8" value="AWS WAF" style="sketch=0;outlineConnect=0;fontColor=#232F3E;gradientColor=none;strokeColor=#ffffff;fillColor=#232F3E;dashed=0;verticalLabelPosition=middle;verticalAlign=bottom;align=center;html=1;whiteSpace=wrap;fontSize=10;fontStyle=1;spacing=3;shape=mxgraph.aws4.productIcon;prIcon=mxgraph.aws4.waf;" vertex="1" parent="rNrNsXkIHkJ5454EtuJx-2">
          <mxGeometry x="280" y="100" width="80" height="100" as="geometry" />
        </mxCell>
        <mxCell id="rNrNsXkIHkJ5454EtuJx-9" value="AWS Secrets Manager" style="sketch=0;outlineConnect=0;fontColor=#232F3E;gradientColor=none;strokeColor=#ffffff;fillColor=#232F3E;dashed=0;verticalLabelPosition=middle;verticalAlign=bottom;align=center;html=1;whiteSpace=wrap;fontSize=10;fontStyle=1;spacing=3;shape=mxgraph.aws4.productIcon;prIcon=mxgraph.aws4.secrets_manager;" vertex="1" parent="rNrNsXkIHkJ5454EtuJx-2">
          <mxGeometry x="270" y="330" width="80" height="110" as="geometry" />
        </mxCell>
        <mxCell id="rNrNsXkIHkJ5454EtuJx-10" value="IAM" style="outlineConnect=0;dashed=0;verticalLabelPosition=bottom;verticalAlign=top;align=center;html=1;shape=mxgraph.aws3.iam;fillColor=#759C3E;gradientColor=none;" vertex="1" parent="rNrNsXkIHkJ5454EtuJx-2">
          <mxGeometry x="289" y="215" width="42" height="81" as="geometry" />
        </mxCell>
        <mxCell id="rNrNsXkIHkJ5454EtuJx-11" value="AWS Certificate Manager" style="sketch=0;outlineConnect=0;fontColor=#232F3E;gradientColor=none;strokeColor=#ffffff;fillColor=#232F3E;dashed=0;verticalLabelPosition=middle;verticalAlign=bottom;align=center;html=1;whiteSpace=wrap;fontSize=10;fontStyle=1;spacing=3;shape=mxgraph.aws4.productIcon;prIcon=mxgraph.aws4.certificate_manager_3;" vertex="1" parent="rNrNsXkIHkJ5454EtuJx-2">
          <mxGeometry x="260" y="-50" width="80" height="110" as="geometry" />
        </mxCell>
        <mxCell id="rNrNsXkIHkJ5454EtuJx-12" value="Private subnet" style="points=[[0,0],[0.25,0],[0.5,0],[0.75,0],[1,0],[1,0.25],[1,0.5],[1,0.75],[1,1],[0.75,1],[0.5,1],[0.25,1],[0,1],[0,0.75],[0,0.5],[0,0.25]];outlineConnect=0;gradientColor=none;html=1;whiteSpace=wrap;fontSize=12;fontStyle=0;container=1;pointerEvents=0;collapsible=0;recursiveResize=0;shape=mxgraph.aws4.group;grIcon=mxgraph.aws4.group_security_group;grStroke=0;strokeColor=#00A4A6;fillColor=#E6F6F7;verticalAlign=top;align=left;spacingLeft=30;fontColor=#147EBA;dashed=0;" vertex="1" parent="rNrNsXkIHkJ5454EtuJx-1">
          <mxGeometry x="270" y="230" width="220" height="130" as="geometry" />
        </mxCell>
        <mxCell id="rNrNsXkIHkJ5454EtuJx-13" value="" style="sketch=0;points=[[0,0,0],[0.25,0,0],[0.5,0,0],[0.75,0,0],[1,0,0],[0,1,0],[0.25,1,0],[0.5,1,0],[0.75,1,0],[1,1,0],[0,0.25,0],[0,0.5,0],[0,0.75,0],[1,0.25,0],[1,0.5,0],[1,0.75,0]];outlineConnect=0;fontColor=#232F3E;fillColor=#ED7100;strokeColor=#ffffff;dashed=0;verticalLabelPosition=bottom;verticalAlign=top;align=center;html=1;fontSize=12;fontStyle=0;aspect=fixed;shape=mxgraph.aws4.resourceIcon;resIcon=mxgraph.aws4.ec2;" vertex="1" parent="rNrNsXkIHkJ5454EtuJx-12">
          <mxGeometry x="85" y="35" width="60" height="60" as="geometry" />
        </mxCell>
        <mxCell id="rNrNsXkIHkJ5454EtuJx-14" value="" style="sketch=0;points=[[0,0,0],[0.25,0,0],[0.5,0,0],[0.75,0,0],[1,0,0],[0,1,0],[0.25,1,0],[0.5,1,0],[0.75,1,0],[1,1,0],[0,0.25,0],[0,0.5,0],[0,0.75,0],[1,0.25,0],[1,0.5,0],[1,0.75,0]];outlineConnect=0;fontColor=#232F3E;fillColor=#DD344C;strokeColor=#ffffff;dashed=0;verticalLabelPosition=bottom;verticalAlign=top;align=center;html=1;fontSize=12;fontStyle=0;aspect=fixed;shape=mxgraph.aws4.resourceIcon;resIcon=mxgraph.aws4.inspector;" vertex="1" parent="rNrNsXkIHkJ5454EtuJx-12">
          <mxGeometry x="41.5" y="43.25" width="43.5" height="43.5" as="geometry" />
        </mxCell>
        <mxCell id="rNrNsXkIHkJ5454EtuJx-15" value="Public subnet" style="points=[[0,0],[0.25,0],[0.5,0],[0.75,0],[1,0],[1,0.25],[1,0.5],[1,0.75],[1,1],[0.75,1],[0.5,1],[0.25,1],[0,1],[0,0.75],[0,0.5],[0,0.25]];outlineConnect=0;gradientColor=none;html=1;whiteSpace=wrap;fontSize=12;fontStyle=0;container=1;pointerEvents=0;collapsible=0;recursiveResize=0;shape=mxgraph.aws4.group;grIcon=mxgraph.aws4.group_security_group;grStroke=0;strokeColor=#7AA116;fillColor=#F2F6E8;verticalAlign=top;align=left;spacingLeft=30;fontColor=#248814;dashed=0;" vertex="1" parent="rNrNsXkIHkJ5454EtuJx-1">
          <mxGeometry x="270" y="80" width="230" height="170" as="geometry" />
        </mxCell>
        <mxCell id="rNrNsXkIHkJ5454EtuJx-16" value="Security group" style="fillColor=none;strokeColor=#DD3522;verticalAlign=top;fontStyle=0;fontColor=#DD3522;whiteSpace=wrap;html=1;" vertex="1" parent="rNrNsXkIHkJ5454EtuJx-15">
          <mxGeometry x="50" y="40" width="130" height="130" as="geometry" />
        </mxCell>
        <mxCell id="rNrNsXkIHkJ5454EtuJx-17" value="" style="outlineConnect=0;dashed=0;verticalLabelPosition=bottom;verticalAlign=top;align=center;html=1;shape=mxgraph.aws3.classic_load_balancer;fillColor=#F58536;gradientColor=none;" vertex="1" parent="rNrNsXkIHkJ5454EtuJx-15">
          <mxGeometry x="86" y="58" width="69" height="72" as="geometry" />
        </mxCell>
        <mxCell id="rNrNsXkIHkJ5454EtuJx-18" value="Network&#xa;access&#xa;control list" style="sketch=0;outlineConnect=0;fontColor=#232F3E;gradientColor=none;strokeColor=#232F3E;fillColor=#ffffff;dashed=0;verticalLabelPosition=bottom;verticalAlign=top;align=center;html=1;fontSize=12;fontStyle=0;aspect=fixed;shape=mxgraph.aws4.resourceIcon;resIcon=mxgraph.aws4.network_access_control_list;" vertex="1" parent="rNrNsXkIHkJ5454EtuJx-15">
          <mxGeometry x="-40" y="20" width="70" height="70" as="geometry" />
        </mxCell>
        <mxCell id="rNrNsXkIHkJ5454EtuJx-19" value="Patch&#xa;manager" style="sketch=0;outlineConnect=0;fontColor=#232F3E;gradientColor=none;strokeColor=#232F3E;fillColor=#ffffff;dashed=0;verticalLabelPosition=bottom;verticalAlign=top;align=center;html=1;fontSize=12;fontStyle=0;aspect=fixed;shape=mxgraph.aws4.resourceIcon;resIcon=mxgraph.aws4.patch_manager;" vertex="1" parent="rNrNsXkIHkJ5454EtuJx-1">
          <mxGeometry x="160" y="70" width="60" height="60" as="geometry" />
        </mxCell>
        <mxCell id="rNrNsXkIHkJ5454EtuJx-20" value="" style="shape=image;verticalLabelPosition=bottom;labelBackgroundColor=default;verticalAlign=top;aspect=fixed;imageAspect=0;image=https://www.delltechnologies.com/uploads/2019/02/Strengthen-Security-with-NIST-Cybersecurity-Framework-fig2.jpg;" vertex="1" parent="rNrNsXkIHkJ5454EtuJx-1">
          <mxGeometry x="640" y="50" width="320" height="180" as="geometry" />
        </mxCell>
        <mxCell id="BfBGWTwIpBepBI2N-5Oq-0" value="" style="sketch=0;points=[[0,0,0],[0.25,0,0],[0.5,0,0],[0.75,0,0],[1,0,0],[0,1,0],[0.25,1,0],[0.5,1,0],[0.75,1,0],[1,1,0],[0,0.25,0],[0,0.5,0],[0,0.75,0],[1,0.25,0],[1,0.5,0],[1,0.75,0]];outlineConnect=0;fontColor=#232F3E;fillColor=#DD344C;strokeColor=#ffffff;dashed=0;verticalLabelPosition=bottom;verticalAlign=top;align=center;html=1;fontSize=12;fontStyle=0;aspect=fixed;shape=mxgraph.aws4.resourceIcon;resIcon=mxgraph.aws4.security_hub;" vertex="1" parent="rNrNsXkIHkJ5454EtuJx-1">
          <mxGeometry x="772" y="210" width="50" height="50" as="geometry" />
        </mxCell>
        <mxCell id="BfBGWTwIpBepBI2N-5Oq-1" value="AWS Config" style="sketch=0;outlineConnect=0;fontColor=#232F3E;gradientColor=none;strokeColor=#ffffff;fillColor=#232F3E;dashed=0;verticalLabelPosition=middle;verticalAlign=bottom;align=center;html=1;whiteSpace=wrap;fontSize=10;fontStyle=1;spacing=3;shape=mxgraph.aws4.productIcon;prIcon=mxgraph.aws4.config;" vertex="1" parent="rNrNsXkIHkJ5454EtuJx-1">
          <mxGeometry x="650" y="215" width="50" height="60" as="geometry" />
        </mxCell>
        <mxCell id="BfBGWTwIpBepBI2N-5Oq-2" value="" style="outlineConnect=0;dashed=0;verticalLabelPosition=bottom;verticalAlign=top;align=center;html=1;shape=mxgraph.aws3.kms;fillColor=#759C3E;gradientColor=none;" vertex="1" parent="rNrNsXkIHkJ5454EtuJx-1">
          <mxGeometry x="710" y="215" width="50" height="45" as="geometry" />
        </mxCell>
        <mxCell id="BfBGWTwIpBepBI2N-5Oq-3" value="" style="sketch=0;outlineConnect=0;fontColor=#232F3E;gradientColor=none;fillColor=#7AA116;strokeColor=none;dashed=0;verticalLabelPosition=bottom;verticalAlign=top;align=center;html=1;fontSize=12;fontStyle=0;aspect=fixed;pointerEvents=1;shape=mxgraph.aws4.backup_vault;" vertex="1" parent="rNrNsXkIHkJ5454EtuJx-1">
          <mxGeometry x="910" y="215" width="40" height="40" as="geometry" />
        </mxCell>
        <mxCell id="BfBGWTwIpBepBI2N-5Oq-4" value="" style="sketch=0;outlineConnect=0;fontColor=#232F3E;gradientColor=none;fillColor=#7AA116;strokeColor=none;dashed=0;verticalLabelPosition=bottom;verticalAlign=top;align=center;html=1;fontSize=12;fontStyle=0;aspect=fixed;pointerEvents=1;shape=mxgraph.aws4.archive;" vertex="1" parent="rNrNsXkIHkJ5454EtuJx-1">
          <mxGeometry x="909.62" y="265" width="40.38" height="50" as="geometry" />
        </mxCell>
        <mxCell id="BfBGWTwIpBepBI2N-5Oq-6" value="Amazon GuardDuty" style="sketch=0;outlineConnect=0;fontColor=#232F3E;gradientColor=none;strokeColor=#ffffff;fillColor=#232F3E;dashed=0;verticalLabelPosition=middle;verticalAlign=bottom;align=center;html=1;whiteSpace=wrap;fontSize=10;fontStyle=1;spacing=3;shape=mxgraph.aws4.productIcon;prIcon=mxgraph.aws4.guardduty;" vertex="1" parent="rNrNsXkIHkJ5454EtuJx-1">
          <mxGeometry x="773" y="263" width="47.5" height="60" as="geometry" />
        </mxCell>
        <mxCell id="BfBGWTwIpBepBI2N-5Oq-7" value="" style="sketch=0;points=[[0,0,0],[0.25,0,0],[0.5,0,0],[0.75,0,0],[1,0,0],[0,1,0],[0.25,1,0],[0.5,1,0],[0.75,1,0],[1,1,0],[0,0.25,0],[0,0.5,0],[0,0.75,0],[1,0.25,0],[1,0.5,0],[1,0.75,0]];outlineConnect=0;fontColor=#232F3E;fillColor=#DD344C;strokeColor=#ffffff;dashed=0;verticalLabelPosition=bottom;verticalAlign=top;align=center;html=1;fontSize=12;fontStyle=0;aspect=fixed;shape=mxgraph.aws4.resourceIcon;resIcon=mxgraph.aws4.detective;" vertex="1" parent="rNrNsXkIHkJ5454EtuJx-1">
          <mxGeometry x="830" y="212.5" width="55" height="55" as="geometry" />
        </mxCell>
      </root>
    </mxGraphModel>
  </diagram>
</mxfile>
